<svg width="32" height="32" viewBox="0 0 32 32" fill="none" xmlns="http://www.w3.org/2000/svg">
<rect width="32" height="32" rx="16" fill="#EFF1F5"/>
<mask id="mask0_555_6258" style="mask-type:alpha" maskUnits="userSpaceOnUse" x="4" y="4" width="24" height="24">
<rect x="4" y="4" width="24" height="24" fill="#D9D9D9"/>
</mask>
<g mask="url(#mask0_555_6258)">
<path d="M14.5502 16L18.9002 20.35C19.1502 20.6 19.271 20.8917 19.2627 21.225C19.2544 21.5583 19.1252 21.85 18.8752 22.1C18.6252 22.35 18.3335 22.475 18.0002 22.475C17.6669 22.475 17.3752 22.35 17.1252 22.1L12.4252 17.425C12.2252 17.225 12.0752 17 11.9752 16.75C11.8752 16.5 11.8252 16.25 11.8252 16C11.8252 15.75 11.8752 15.5 11.9752 15.25C12.0752 15 12.2252 14.775 12.4252 14.575L17.1252 9.87499C17.3752 9.62499 17.671 9.50415 18.0127 9.51249C18.3544 9.52082 18.6502 9.64999 18.9002 9.89999C19.1502 10.15 19.2752 10.4417 19.2752 10.775C19.2752 11.1083 19.1502 11.4 18.9002 11.65L14.5502 16Z" fill="#060B11"/>
</g>
</svg>
