<svg width="15" height="16" viewBox="0 0 15 16" fill="none" xmlns="http://www.w3.org/2000/svg">
<g id="icon_reply">
<path id="vector" fill-rule="evenodd" clip-rule="evenodd" d="M7.5 2.875C10.5521 2.875 12.9375 5.09886 12.9375 7.7379C12.9375 9.2524 12.1612 10.6192 10.9177 11.5196C10.7878 11.6136 10.7109 11.7642 10.7109 11.9246V13.357C10.6409 13.3144 10.5687 13.2706 10.4955 13.2264C10.0005 12.9272 9.41096 12.5767 9.19156 12.4768C9.0912 12.4311 8.97856 12.4199 8.87116 12.4448C8.43375 12.5465 7.97435 12.6008 7.5 12.6008C4.44786 12.6008 2.0625 10.377 2.0625 7.7379C2.0625 5.09886 4.44786 2.875 7.5 2.875ZM10.9477 14.6751C11.1019 14.7706 11.2957 14.7751 11.4542 14.6868C11.6127 14.5986 11.7109 14.4314 11.7109 14.25V12.1733C13.0649 11.1062 13.9375 9.52138 13.9375 7.7379C13.9375 4.45325 11.0062 1.875 7.5 1.875C3.99376 1.875 1.0625 4.45325 1.0625 7.7379C1.0625 11.0226 3.99376 13.6008 7.5 13.6008C7.9859 13.6008 8.45983 13.5517 8.91592 13.4585C9.14578 13.5841 9.56141 13.8303 9.97817 14.0822C10.232 14.2356 10.4745 14.3839 10.6536 14.4939C10.7431 14.5489 10.8167 14.5942 10.8679 14.6258L10.9477 14.6751Z" fill="#868B94"/>
</g>
</svg>
