<svg width="15" height="16" viewBox="0 0 15 16" fill="none" xmlns="http://www.w3.org/2000/svg">
<g id="icon_thumb_up">
<path id="vector" fill-rule="evenodd" clip-rule="evenodd" d="M8.60414 1.73527C8.41567 1.67719 8.19287 1.66178 7.97019 1.74785C7.74597 1.83451 7.58106 2.00118 7.46841 2.19835C7.46211 2.20938 7.45623 2.22064 7.45078 2.23212C6.36768 4.51295 5.29439 5.9617 4.79649 6.52166H1.97188C1.69401 6.52166 1.46875 6.74692 1.46875 7.02479V13.7375C1.46875 14.0154 1.69401 14.2407 1.97188 14.2407H9.88306C10.786 14.2407 11.3591 14.0379 11.7607 13.6351C12.6024 12.7911 13.1484 11.4179 13.5094 10.2271C13.7091 9.56824 13.928 8.70805 13.9127 7.93659C13.905 7.54775 13.8377 7.14401 13.6477 6.79108C13.4502 6.42411 13.1332 6.13805 12.6862 5.98705C12.581 5.95154 12.4774 5.92758 12.3798 5.91535C12.3591 5.91275 12.3382 5.91145 12.3173 5.91145H9.47902L10.029 4.80834C10.0378 4.79073 10.0456 4.77263 10.0522 4.75411C10.2027 4.33564 10.1631 3.88398 10.0509 3.4947C9.93714 3.1003 9.73556 2.72138 9.49756 2.41776C9.2692 2.12646 8.96023 1.84502 8.60414 1.73527ZM2.475 7.52791V13.2344H4.49991V7.52791H2.475ZM5.50616 7.23727C6.07226 6.61382 7.20857 5.07712 8.33832 2.70879C8.41877 2.74566 8.55426 2.84545 8.70563 3.03856C8.86865 3.24651 9.00816 3.51045 9.08402 3.77351C9.15732 4.02769 9.15988 4.23941 9.1132 4.39005L8.2157 6.19007C8.13793 6.34603 8.14641 6.53113 8.23812 6.67932C8.32982 6.82751 8.49168 6.9177 8.66595 6.9177H12.2793C12.3024 6.92205 12.3311 6.92922 12.3642 6.94039C12.5635 7.00771 12.6819 7.11979 12.7617 7.26799C12.849 7.43025 12.9008 7.65878 12.9067 7.9565C12.9186 8.55816 12.7425 9.28835 12.5464 9.9352C12.1896 11.112 11.7002 12.2708 11.0482 12.9246C10.9045 13.0686 10.6358 13.2344 9.88306 13.2344H5.50616V7.23727Z" fill="#868B94"/>
</g>
</svg>
