<svg width="32" height="32" viewBox="0 0 32 32" fill="none" xmlns="http://www.w3.org/2000/svg">
<path fill-rule="evenodd" clip-rule="evenodd" d="M25.1593 6.84042C26.8498 8.53089 27.6454 11.352 27.6454 16.049C27.6454 20.746 26.8498 23.5671 25.1593 25.2576C23.4689 26.9481 20.6478 27.7437 15.9507 27.7437C11.2537 27.7437 8.43262 26.9481 6.74216 25.2576C5.05169 23.5671 4.25605 20.746 4.25605 16.049C4.25605 11.352 5.05169 8.53089 6.74216 6.84042C8.43262 5.14996 11.2537 4.35431 15.9507 4.35431C20.6478 4.35431 23.4689 5.14996 25.1593 6.84042ZM26.5396 5.46017C24.2703 3.19088 20.756 2.40234 15.9507 2.40234C11.1454 2.40234 7.6312 3.19088 5.36191 5.46017C3.09261 7.72947 2.30408 11.2437 2.30408 16.049C2.30408 20.8543 3.09261 24.3686 5.36191 26.6378C7.6312 28.9071 11.1454 29.6957 15.9507 29.6957C20.756 29.6957 24.2703 28.9071 26.5396 26.6378C28.8089 24.3686 29.5974 20.8543 29.5974 16.049C29.5974 11.2437 28.8089 7.72947 26.5396 5.46017Z" fill="#060B11"/>
<g clip-path="url(#clip0_312_11335)">
<path d="M15.9999 22.2222C12.0725 22.2222 8.88876 19.0385 8.88876 15.1111C8.88876 11.1838 12.0725 8 15.9999 8C19.9272 8 23.111 11.1838 23.111 15.1111C23.111 19.0385 19.9272 22.2222 15.9999 22.2222Z" fill="#060B11"/>
<path d="M15.9999 21.1336C20.8991 21.1336 24.8889 24.4193 24.8889 28.4678C24.8889 28.7416 24.6738 28.9567 24.4 28.9567H7.59992C7.32612 28.9567 7.11098 28.7416 7.11098 28.4678C7.11098 24.4193 11.1007 21.1336 15.9999 21.1336Z" fill="#060B11"/>
</g>
<defs>
<clipPath id="clip0_312_11335">
<rect width="21.3333" height="21.3333" rx="6.66667" transform="matrix(-1 0 0 1 26.6667 8)" fill="white"/>
</clipPath>
</defs>
</svg>
