<svg width="300" height="300" viewBox="0 0 300 300" fill="none" xmlns="http://www.w3.org/2000/svg">
<path d="M33.2949 202.5C32.0983 202.5 31.5 201.905 31.5 200.715V99.2853C31.5 98.0951 32.0983 97.5 33.2949 97.5H65.266C66.4626 97.5 67.0608 98.0951 67.0608 99.2853V114.126C67.0608 115.316 66.4626 115.911 65.266 115.911H51.8045V184.2H65.266C66.4626 184.2 67.0608 184.758 67.0608 185.874V200.715C67.0608 201.905 66.4626 202.5 65.266 202.5H33.2949Z" fill="#060B11"/>
<path d="M234.295 202.5C233.098 202.5 232.5 201.905 232.5 200.715V185.874C232.5 184.758 233.098 184.2 234.295 184.2H247.756V115.911H234.295C233.098 115.911 232.5 115.316 232.5 114.126V99.2853C232.5 98.0951 233.098 97.5 234.295 97.5H266.266C267.463 97.5 268.061 98.0951 268.061 99.2853V200.715C268.061 201.905 267.463 202.5 266.266 202.5H234.295Z" fill="#060B11"/>
</svg>
